<svg xmlns="http://www.w3.org/2000/svg" version="1.1" xmlns:xlink="http://www.w3.org/1999/xlink" xmlns:svgjs="http://svgjs.dev/svgjs" viewBox="0 0 6.874812240534232 5.917049443651955"><g transform="matrix(1,0,0,1,3.4362486591532746,5.108542693152026)"><rect width="6.874812240534232" height="6.874812240534232" x="-3.4362486591532746" y="-5.587424091593164" fill="#3a868f"></rect><g transform="matrix(1,0,0,1,0,0)"><path d=" M -2.46687962286957 -0.7200211974876868 L -2.5373672374258027 -0.6886585441968296 Q -2.554367013857634 -0.6812232211042932 -2.573729451048118 -0.672488051558471 Q -2.5930918882386025 -0.6637528820126488 -2.615585863192845 -0.6536480476866224 Q -2.638079838147088 -0.6435432133605961 -2.659133892289705 -0.633801696957246 Q -2.6801879464323224 -0.6240601805538957 -2.690420379646615 -0.6291777102745515 Q -2.700652812860908 -0.6342952399952073 -2.7045661408043484 -0.6432424907488028 Q -2.7084794687477887 -0.6521897415023983 -2.70499752623593 -0.6625062193316947 Q -2.7015155837240714 -0.6728226971609912 -2.6870043161211465 -0.6786366593328157 Q -2.4355874453541193 -0.7800737091604042 -2.2946682459849903 -0.8417086242695869 Q -2.067855439381344 -0.9409114876357954 -2.015988962177655 -0.9673273266630229 Q -2.002064693766246 -0.9744833764478867 -1.9916783976100316 -0.9702325569309225 Q -1.981292101453817 -0.9659817374139583 -1.9774766067089629 -0.9572581679292027 Q -1.9736611119641088 -0.9485345984444471 -1.977562402141979 -0.9385676499542445 Q -1.9814636923198494 -0.9286007014640418 -1.9959749599227743 -0.9227867392922173 Q -2.1439399004081086 -0.8602019447733456 -2.249908792094879 -0.8149194001161111 Q -2.2360733830480086 -0.773538803085235 -2.2059407578835195 -0.7046449722825496 Q -2.174634134335998 -0.6330669662537856 -2.1555415589146354 -0.600381048426991 Q -2.0206337389325153 -0.6599196629106174 -1.9072829276695247 -0.7126944358127303 Q -1.8927156303232642 -0.7195987894570863 -1.8815884720336118 -0.7148725925307746 Q -1.8704613137439596 -0.7101463956044628 -1.8664501526019335 -0.7009754635820273 Q -1.862438991459907 -0.691804531559592 -1.8662424484391915 -0.6816139018005495 Q -1.870045905418476 -0.6714232720415069 -1.8950421777852076 -0.6615563452724059 Q -1.9200384501519392 -0.6516894185033051 -1.9665081243273002 -0.6324305046699477 Q -2.012977798502661 -0.6131715908365903 -2.0652631856678587 -0.5913690138399968 Q -2.152890213309759 -0.5541087914668147 -2.244152170996433 -0.5141928464437249 Q -2.3354141286831074 -0.4742769014206351 -2.3726710673807823 -0.4577150759879325 Q -2.4099280060784576 -0.44115325055522986 -2.44060035478119 -0.4272049066126815 Q -2.48832850965909 -0.4047308481050652 -2.55009299243507 -0.372919956867522 Q -2.564017260846479 -0.36576390708265816 -2.574473375329611 -0.37078360360472795 Q -2.584929489812744 -0.3758033001267978 -2.5892341505505283 -0.3856452759557529 Q -2.5935388112883127 -0.3954872517847079 -2.590126687103372 -0.40657260661911 Q -2.5867145629184316 -0.4176579614535121 -2.565520872121978 -0.4258617238466509 Q -2.5443271813255244 -0.4340654862397898 -2.514409921044315 -0.4460847433777828 Q -2.4844926607631064 -0.4581040005157759 -2.448731672620392 -0.4732121165532708 Q -2.412970684477678 -0.48832023259076573 -2.3695765183227397 -0.5072998731164505 Q -2.3286708609967084 -0.5246581527214236 -2.198040999994214 -0.5817927406956501 Q -2.2064813568307686 -0.6132753321542354 -2.240331643541526 -0.6906690511728365 Q -2.27281226547208 -0.7649312324276791 -2.2919608706367782 -0.7965267587819422 Q -2.3089606470686097 -0.7890914356894059 -2.3246183358874015 -0.7822431117883856 L -2.46687962286957 -0.7200211974876868 M -2.3025462120608586 -1.1219967547178422 L -2.133178265606485 -1.1589041228090418 Q -2.1102504242769555 -1.1637652438955728 -2.094009870001872 -1.1672085379985322 Q -2.0869461929423636 -1.169205301699105 -2.0816918959710127 -1.1703193086147685 Q -2.1072127816753006 -1.2906904755947985 -2.1194397771090157 -1.3295263477126882 Q -2.1324482559716706 -1.369693936557704 -2.1319554295111147 -1.3767863170360277 Q -2.131462603050559 -1.3838786975143516 -2.128176366360966 -1.3895667913283947 Q -2.12160389298178 -1.4009429789564811 -2.111334130719595 -1.4031203561098233 Q -2.10106436845741 -1.4052977332631653 -2.0917363925979977 -1.3977918664210853 Q -2.082408416738585 -1.3902859995790056 -2.0799204493576893 -1.3738428985919833 Q -2.0695212426721223 -1.2941895537551553 -2.0520930211153914 -1.2319988136246889 Q -2.03466479955866 -1.1698080734942224 -2.03185026746057 -1.1624186431076362 Q -2.02903573536248 -1.1550292127210497 -2.0289639768154424 -1.148805237318228 Q -2.0288922182684046 -1.142581261915406 -2.0317007915969656 -1.1369944414573323 Q -2.037491781547211 -1.1242865371021198 -2.0534572191732017 -1.1218998430771934 Q -2.1930210308509515 -1.0997967936175157 -2.3604420388926206 -1.0643004823502422 Q -2.5278630469342893 -1.0288041710829687 -2.571142217785658 -1.0198777640482544 Q -2.6144213886370267 -1.01095135701354 -2.650246140714416 -1.0033558553158353 Q -2.726947395128608 -0.9860955182826987 -2.75820564185738 -0.9769725233055745 Q -2.7894638885861522 -0.9678495283284503 -2.7964330624493368 -0.9701154499085871 Q -2.8034022363125217 -0.972381371488724 -2.807382223394376 -0.9770280283242581 Q -2.8122449672611403 -0.9834840652479503 -2.8126636010043087 -0.9948754159755608 Q -2.8135734384278006 -1.0156461906306848 -2.8205612999896887 -1.0486049625418836 Q -2.8340306563336184 -1.1121341895591217 -2.8415695625838095 -1.1347438591113357 Q -2.8491084688340003 -1.1573535286635495 -2.848376810692929 -1.1644965458198577 Q -2.847645152551857 -1.1716395629761662 -2.844735305867326 -1.176748720073208 Q -2.8391181592102046 -1.1879223609893559 -2.8281319019064717 -1.1902516481766519 Q -2.8171456446027388 -1.192580935363948 -2.8081577737798114 -1.1855020952049153 Q -2.7991699029568844 -1.1784232550458829 -2.796746923963381 -1.1634637808199408 Q -2.7943239449698773 -1.148504306593999 -2.7919735359135283 -1.1315329055679602 Q -2.7896231268571787 -1.1145615045419213 -2.786527519340467 -1.095252423388708 Q -2.779453547522133 -1.054824880994123 -2.7707862826468714 -1.0257161193899944 Q -2.729229570237099 -1.034526901359332 -2.688049247832389 -1.0427587466116681 Q -2.6392263116511696 -1.0526109655595146 -2.588970385386854 -1.0627670045752693 Q -2.45396549750796 -1.0898931008755437 -2.3899586071296897 -1.1034637305754427 Q -2.4026177766258643 -1.1631716507044259 -2.41145888479425 -1.1907461488694897 Q -2.4212840231035146 -1.2206076904837433 -2.416745409783595 -1.229805689568371 Q -2.412206796463676 -1.2390036886529991 -2.4016982025209748 -1.2412317024843258 Q -2.3754267176642223 -1.2468017370626427 -2.3659508887214384 -1.1973998641644217 Q -2.364301811607113 -1.187267660226783 -2.362580164555633 -1.1791473830892414 L -2.3548546860831436 -1.1403553774896908 L -2.3488795580809496 -1.1121732391888108 L -2.3025462120608586 -1.1219967547178422 M -2.8895438284672954 -1.6327224976629588 Q -2.8896864788153827 -1.6444403794015963 -2.8800404526565906 -1.6543241561405333 Q -2.870394426497799 -1.6642079328794706 -2.839459217689446 -1.6702001802585484 Q -2.8085240088810934 -1.6761924276376263 -2.7510507687986285 -1.688367551051471 Q -2.6935775287161636 -1.7005426744653156 -2.628325058179377 -1.7154982460096564 Q -2.5630725876425906 -1.730453817553997 -2.493687865283548 -1.746924646313948 Q -2.4243031429245048 -1.7633954750738992 -2.3590685036812293 -1.7798157818355693 Q -2.2062172208008373 -1.819276994467839 -2.135677267170226 -1.8411333784359247 Q -2.1176716371348636 -1.8462357484469916 -2.106838117191306 -1.8387987126432015 Q -2.096004597247749 -1.8313616768394114 -2.09589166572218 -1.8220850204629904 Q -2.0957787341966108 -1.812808364086569 -2.1010573016436798 -1.8051751840541592 Q -2.106335869090749 -1.7975420040217491 -2.1326297778286394 -1.7913620998692341 Q -2.15892368656653 -1.785182195716719 -2.2178408586905616 -1.7712803832558124 Q -2.2767580308145936 -1.7573785707949054 -2.344439839184589 -1.7414167902831603 Q -2.3473633658547444 -1.7408928826236951 -2.349798647452457 -1.7403749187287338 Q -2.3508592066835394 -1.7071564225090838 -2.3501221798850884 -1.6466140335261241 Q -2.349254390267558 -1.5753302529494135 -2.346843740111005 -1.5377591574293001 Q -2.3439083259118423 -1.5373065749438786 -2.340972911712679 -1.5368539924584572 Q -2.19706629077965 -1.5088185098034894 -2.1182864649456854 -1.4956163487877212 Q -2.093326528606045 -1.4910370300529743 -2.0930709467323885 -1.4700424919379158 Q -2.092803477329725 -1.4480714636779708 -2.1142268228721903 -1.4429274873153786 Q -2.1205561775204416 -1.4413854831595017 -2.1342805334293846 -1.4456132634053889 Q -2.1480048893383272 -1.449841043651276 -2.181553692679502 -1.4579781845505335 Q -2.215102496020676 -1.466115325449791 -2.2584340321042258 -1.4755983262763053 Q -2.3017655681877756 -1.4850813271028196 -2.3531680073778976 -1.495686868496132 Q -2.4045704465680195 -1.5062924098894444 -2.4589082999573044 -1.5173505337681783 Q -2.5132461533465893 -1.528408657646912 -2.568316374344539 -1.5394578658788904 Q -2.623386595342489 -1.5505070741108689 -2.6747830907681074 -1.560624370431738 Q -2.7261795861937257 -1.5707416667526073 -2.7712140362663233 -1.5797156193309156 Q -2.8162484863389206 -1.588689571909224 -2.8426850454248984 -1.5942275494953464 Q -2.8891812588325734 -1.6029395482439224 -2.8895438284672954 -1.6327224976629588 M -2.392363463373794 -1.5464830437068833 Q -2.390862209186297 -1.5836134442705827 -2.391628954807266 -1.6465970586157583 Q -2.392264937609155 -1.6988392813671833 -2.3941100737547174 -1.7300691347100385 Q -2.4384155562924743 -1.7192751056189 -2.4851622641924473 -1.7084513577052434 Q -2.5577146357578675 -1.6914536494035755 -2.62589063296481 -1.67597417019977 Q -2.737401566329126 -1.6502007945062762 -2.8216539883396727 -1.6315957006391912 Q -2.7653690984251185 -1.6210495968909153 -2.668440992207704 -1.6012319241475765 Q -2.5392114422704894 -1.5754593539197157 -2.4716612531027193 -1.562120486320364 Q -2.43103586809337 -1.5543136525426307 -2.392363463373794 -1.5464830437068833 M -2.858014334632588 -2.119613768210279 Q -2.8525341827535025 -2.1488904392679498 -2.8107789305892834 -2.1410744849485983 Q -2.7541453701826413 -2.130473535412006 -2.691647249769405 -2.1180296857922163 Q -2.629149129356168 -2.105585836172426 -2.57836475263102 -2.095583003873397 Q -2.5275803759058717 -2.0855801715743687 -2.459997909229601 -2.07243298983652 Q -2.3195535761781354 -2.0451504022514797 -2.1152765013124033 -2.005919286798925 Q -2.095478847080129 -2.1010690725851573 -2.0876774091320205 -2.1905161797552775 Q -2.0863630028465057 -2.2081535693551544 -2.075447268622285 -2.2160455453461507 Q -2.0645315343980646 -2.2239375213371475 -2.054452680427391 -2.222050911673856 Q -2.044373826456717 -2.2201643020105637 -2.038551766332613 -2.210132786712795 Q -2.032729706208509 -2.200101271415026 -2.0368339465016785 -2.183482858574693 Q -2.0513950506612653 -2.1295776268753044 -2.060809093559813 -2.0660156104248264 Q -2.070223136458361 -2.0024535939743484 -2.070728995745322 -1.9891357132190457 Q -2.071234855032283 -1.975817832463743 -2.0735577005426564 -1.9700431110125436 Q -2.075880546053029 -1.964268389561344 -2.080618495024377 -1.9601876437327534 Q -2.0907540155050377 -1.9511560997766173 -2.1064125374910208 -1.9550806629589972 Q -2.217641704785217 -1.9818622300474906 -2.3988211035437543 -2.0157762847090455 Q -2.580000502302292 -2.0496903393706005 -2.6230005373121457 -2.057490917364852 Q -2.666000572322 -2.0652914953591033 -2.7021761564709093 -2.0710694961593674 Q -2.774047379341554 -2.0825356592045 -2.832328786395504 -2.0869871567432123 Q -2.8479565557312863 -2.0884221542343226 -2.854018588568978 -2.098498588809789 Q -2.8600806214066696 -2.1085750233852556 -2.858014334632588 -2.119613768210279 M -2.583300385970506 -2.5821494376245764 Q -2.5582124689588532 -2.5732714418351197 -2.3808872703689037 -2.5123450604799555 Q -2.203562071778954 -2.4514186791247914 -2.0058615489185354 -2.3896872121677335 Q -1.990925786584594 -2.385071798092798 -1.98616937007521 -2.3733697411773242 Q -1.981412953565826 -2.361667684261851 -1.9848241962719095 -2.3517393202782992 Q -1.9882354389779928 -2.341810956294747 -1.9977801349967674 -2.3365714509395215 Q -2.0073248310155423 -2.331331945584296 -2.0310202934217063 -2.34050596180213 Q -2.0547157558278704 -2.3496799780199646 -2.0968825930871544 -2.3652004922956285 Q -2.1390494303464385 -2.3807210065712927 -2.1867576800616586 -2.3981454702643057 Q -2.281250610749442 -2.43267707274744 -2.363679121031489 -2.460998320330505 Q -2.446107631313536 -2.489319567913569 -2.4921345074863943 -2.5048755896467565 Q -2.5381613836592525 -2.5204316113799434 -2.5772685957536954 -2.5328356885587295 Q -2.6636364761750397 -2.5609615514136532 -2.716163841004013 -2.5748788085535064 Q -2.7314169282408463 -2.5785706538857864 -2.7362739804504668 -2.5877257952674513 Q -2.7411310326600873 -2.596880936649116 -2.7374817962768354 -2.60750197718966 Q -2.7338325598935835 -2.6181230177302037 -2.7235016531090848 -2.6248994371593546 Q -2.713170746324586 -2.6316758565885054 -2.6963227182626186 -2.625112669328021 Q -2.6794746902006517 -2.618549482067537 -2.663088446510012 -2.612144957258498 Q -2.646702202819373 -2.6057404324494593 -2.627545252900766 -2.598383932931746 Q -2.608388302982159 -2.5910274334140335 -2.583300385970506 -2.5821494376245764 M -2.40377749889589 -3.2381954781346654 Q -2.193314678607023 -3.116364670715493 -2.1054485545123667 -3.0669051024675182 Q -2.01758243041771 -3.017445534219544 -1.9764017487748125 -2.994545218123262 Q -1.935221067131915 -2.97164490202698 -1.8979628958753383 -2.9512327164895513 Q -1.819191535246221 -2.9080132089377937 -1.789871378844239 -2.892909792247713 Q -1.7605512224422573 -2.8778063755576326 -1.756456780777644 -2.872139687268085 Q -1.7523623391130303 -2.866472998978537 -1.7509279592855622 -2.8600623580333635 Q -1.7450044518117833 -2.833754778793383 -1.768787133953413 -2.8213671048906472 Q -1.7782044013509888 -2.8165822360541912 -1.790332554010822 -2.8189265491059787 Q -1.9211892223994085 -2.8432769107895024 -2.079603212720873 -2.862967564577758 Q -2.2380172030423373 -2.8826582183660143 -2.3029410982286946 -2.891747835559034 Q -2.4208467241054827 -2.908247772352573 -2.517074467244739 -2.925432732200611 L -1.9203857626477923 -2.5968427172238857 Q -1.907195206488304 -2.5894177941454974 -1.904644897677397 -2.579017060444606 Q -1.9020945888664904 -2.5686163267437143 -1.9070046186441343 -2.559893539605988 Q -1.9119146484217782 -2.551170752468262 -1.923126917147693 -2.547676445952209 Q -1.9343391858736076 -2.544182139436156 -1.948141232008599 -2.552511591621521 Q -2.062759093720709 -2.6226328628522206 -2.212535731402642 -2.7069416668390827 L -2.4648583056793067 -2.848973259919222 Q -2.5308110864767484 -2.886097875311164 -2.578946316670925 -2.9120724002292455 Q -2.594689883699992 -2.9209344051937736 -2.597598111953098 -2.9351787120846464 Q -2.600506340206204 -2.9494230189755193 -2.594518499013955 -2.9600605642654294 Q -2.5811057347433177 -2.983888665714828 -2.5542428930702896 -2.978853474995996 Q -2.5273800513972615 -2.9738182842771637 -2.4813936888856154 -2.9664233725915947 Q -2.4354073263739693 -2.9590284609060253 -2.378994818448876 -2.950247290759428 Q -2.3225823105237824 -2.9414661206128314 -2.259201197161796 -2.9321242839158437 Q -2.195820083799809 -2.9227824472188555 -2.132864472249419 -2.9136801241695576 Q -2.069908860699029 -2.9045778011202597 -2.0108630536786816 -2.895995324993847 Q -1.9518172466583343 -2.8874128488674344 -1.903623086863031 -2.8804561448497394 Q -1.8554289270677278 -2.873499440832045 -1.8213579663101167 -2.8683290853744183 Q -1.8198419472276377 -2.8680360462429446 -1.8187514299567549 -2.867982520759161 Q -1.9040658942111688 -2.91152318121362 -2.003554380928387 -2.964723324772016 Q -2.124317958225425 -3.0298991507149093 -2.1847265096158353 -3.061941805050915 Q -2.245135061006246 -3.0939844593869203 -2.3070328687372443 -3.1268654114898404 Q -2.3689306764682425 -3.1597463635927605 -2.4301240001417845 -3.1913902788590613 Q -2.443740058112869 -3.19905471558514 -2.4461438473580395 -3.210213458827271 Q -2.4485476366032093 -3.2213722020694022 -2.4435178500017205 -3.2303077401129263 Q -2.4384880634002317 -3.239243278156451 -2.4279408101336033 -3.2425515965085974 Q -2.417393556866975 -3.245859914860744 -2.40377749889589 -3.2381954781346654 M -1.8425761270575143 -3.606269709458399 Q -1.8182478014753758 -3.5851122620875016 -1.833825155683918 -3.568259586421692 Q -1.8404538170492553 -3.561088235074539 -1.8509559758682108 -3.5601569334866863 Q -1.8614581346871664 -3.5592256318988333 -1.871856594140538 -3.5688371908785723 Q -1.984446810290839 -3.672907174314365 -2.0475043549411955 -3.642093639838317 Q -2.0671616248861255 -3.6323367311015655 -2.08774051915735 -3.60647625496359 Q -2.1083194134285748 -3.5806157788256145 -2.107117747298212 -3.5412721753454726 Q -2.105916081167849 -3.5019285718653306 -2.0837837527264793 -3.457533997955104 Q -2.0424961743789645 -3.374156317223284 -1.9291888230939485 -3.2694234676509573 Q -1.6889485529643256 -3.047363311912164 -1.5916506833652972 -3.1037107280887 Q -1.5754434165984894 -3.1133319643299973 -1.5621860938678152 -3.127674667024303 Q -1.4978880786240452 -3.1972367750916866 -1.6145136187741111 -3.333628250405468 Q -1.6525159618348444 -3.3773987308366062 -1.6711343408383512 -3.3939432497508584 Q -1.7024247217508897 -3.3636879015973618 -1.7194692998071306 -3.340212383645393 Q -1.738143908705615 -3.314254027221011 -1.7460983023440195 -3.3056484056044275 Q -1.754052695982424 -3.297042783987844 -1.7649541241173736 -3.2974779164216947 Q -1.775855552252323 -3.2979130488555453 -1.7832061873831546 -3.304707426755016 Q -1.7905568225139863 -3.3115018046544864 -1.7913224075677059 -3.322183247257121 Q -1.7920879926214255 -3.332864689859755 -1.78003429691791 -3.34266811942432 Q -1.7679806012143946 -3.352471548988885 -1.757706176098122 -3.3635871435769724 L -1.7384830581386446 -3.384384062483716 Q -1.721248538588768 -3.4030295759863134 -1.7137341160149935 -3.4140366325780374 Q -1.7006667347779547 -3.4332093397217145 -1.693043774207817 -3.4414563937709404 Q -1.6758092546579406 -3.460101907273538 -1.6546537681838394 -3.4405473562457933 Q -1.5417049844661808 -3.336145939741734 -1.5083446652579797 -3.243472636757706 Q -1.4752886446189548 -3.149750765570695 -1.5293122347464523 -3.091304252091399 Q -1.594604549195023 -3.0206664413219424 -1.69998274405514 -3.055567735121563 Q -1.8071266422529548 -3.091436193626893 -1.9684820475638956 -3.240581074346978 Q -2.241710533890422 -3.4931330723663225 -2.115727195291571 -3.6459758977163066 Q -2.0157642620912575 -3.76635188143129 -1.8425761270575143 -3.606269709458399 M -1.2398624853022424 -3.626040099564689 Q -1.1769121116002257 -3.5265408597050962 -1.1430882629836066 -3.4727911066931796 Q -1.1342614594980394 -3.4587220684798656 -1.137550871056411 -3.4474479867163734 Q -1.1408402826147825 -3.436173904952881 -1.149472148739358 -3.4311057400902474 Q -1.1581040148639337 -3.4260375752276135 -1.1686731081987647 -3.428608467282676 Q -1.1792422015335955 -3.431179359337739 -1.1876479383789393 -3.4454956251053277 L -1.2435213656450481 -3.540656685795771 L -1.320582974110465 -3.670940116710688 L -1.3893122341988644 -3.7879966426927383 Q -1.456558128961615 -3.902526768833449 -1.4767477678589558 -3.9325731762157288 Q -1.4969374067562968 -3.962619583598009 -1.5071741870991864 -3.978125660817941 Q -1.5174109674420757 -3.993631738037873 -1.5284396557566007 -4.009522187663865 Q -1.5394683440711256 -4.025412637289857 -1.5499156577341267 -4.040795100732652 Q -1.5603629713971279 -4.056177564175446 -1.5606661573553011 -4.063926703795632 Q -1.5609693433134746 -4.071675843415818 -1.5579445893738058 -4.0771322796742915 Q -1.554919835434137 -4.082588715932766 -1.5503614908600083 -4.08639757986451 Q -1.5458031462858794 -4.090206443796254 -1.5318538228599228 -4.104058984815204 Q -1.4874794527407136 -4.147099973197703 -1.4474781219195094 -4.1705865908538104 Q -1.4074767910983055 -4.194073208509918 -1.3737529315409787 -4.200284627726699 Q -1.3400290719836516 -4.206496046943481 -1.3081247897336952 -4.19748347662346 Q -1.2405536876210688 -4.178836368107953 -1.1933332247545785 -4.098412639825321 Q -1.1290540606431259 -3.9889353133672887 -1.1520398098861129 -3.852568437560837 Q -1.1706717840008303 -3.7425393250433787 -1.2398624853022424 -3.626040099564689 M -1.2646123028790197 -3.665299747723069 Q -1.126010734871216 -3.8950301161762844 -1.2298463076666397 -4.071878105070029 Q -1.2869558727041226 -4.169144498961588 -1.3706435537219728 -4.157378488532348 Q -1.4328646340679998 -4.1485906749445824 -1.4901067647580044 -4.0821401255849175 Q -1.4967975046825448 -4.0742481080178585 -1.5026461113266385 -4.066850545559349 Q -1.462328755810108 -3.9914332906403653 -1.4165916582692666 -3.9135359621990733 L -1.3419289368782714 -3.786373836851667 Q -1.3372316133470499 -3.778373570687426 -1.3323604507298799 -3.7710415987176833 Q -1.32748928811271 -3.76370962674794 -1.3222105899299645 -3.755201374400502 Q -1.3169318917472193 -3.746693122053064 -1.308265396272953 -3.733379297577222 Q -1.2995989007986866 -3.7200654731013802 -1.286642617358774 -3.699927662838993 Q -1.277568586318932 -3.685437557985456 -1.2646123028790197 -3.665299747723069 M -0.8498964328060131 -3.8803444509315765 L -0.7908308878320588 -3.7173753848407363 Q -0.7829689524361463 -3.6952958382403076 -0.7774000815307083 -3.6796561593983372 Q -0.77448323616531 -3.6729200914064517 -0.77268154263708 -3.66786019531052 Q -0.6567639229848299 -3.7091353561390608 -0.6198950295542409 -3.7264098771945644 Q -0.5818099547818734 -3.744635759766488 -0.5747149257404223 -3.74508886204026 Q -0.5676198966989712 -3.7455419643140324 -0.5615458782704816 -3.7430399525339335 Q -0.5493978414135026 -3.7380359289737366 -0.5458763495174167 -3.7281461320589613 Q -0.5423548576213308 -3.718256335144186 -0.5485559281790704 -3.708014465460249 Q -0.55475699873681 -3.697772595776312 -0.5707242582202766 -3.693123705979225 Q -0.6482919832748006 -3.6722419705808065 -0.7076185186996197 -3.6467117285315545 Q -0.7669450541244388 -3.6211814864823024 -0.7738954271893779 -3.6174108649648926 Q -0.7808458002543169 -3.613640243447483 -0.7870051579833823 -3.6127428408235693 Q -0.7931645157124477 -3.6118454381996563 -0.7990747438201892 -3.6138874594255794 Q -0.8124389620189468 -3.6179401214693563 -0.8169240614952855 -3.633447390398647 Q -0.8573596058788749 -3.768841515366617 -0.9147681133011113 -3.9300682046051634 Q -0.9721766207233477 -4.09129489384371 -0.98676964947397 -4.133005934156975 Q -1.0013626782245921 -4.174716974470241 -1.0136469522807054 -4.20921626603341 Q -1.0409371750295133 -4.282947164614185 -1.0541291841301452 -4.312717584863121 Q -1.067321193230777 -4.342488005112057 -1.0660005382441864 -4.349696309721951 Q -1.0646798832575957 -4.356904614331845 -1.0606027290861533 -4.361466251185129 Q -1.0548494030187565 -4.367143039875581 -1.0436144589897252 -4.369070255036086 Q -1.0231483234691128 -4.372729514628281 -0.9914089752309967 -4.384031046759905 Q -0.9302302315256425 -4.405815159419412 -0.9088215364122411 -4.416288938023665 Q -0.8874128412988397 -4.426762716627917 -0.8802359170970145 -4.426985823624602 Q -0.8730589928951894 -4.427208930621286 -0.8676087553416236 -4.425003119074615 Q -0.8557882991261409 -4.420919076622769 -0.8520211217489329 -4.4103392938767305 Q -0.8482539443717247 -4.399759511130691 -0.8540769195356628 -4.3899114270445905 Q -0.8598998946996008 -4.380063342958489 -0.8744052873601665 -4.375675828846559 Q -0.8889106800207323 -4.371288314734629 -0.9054198252187485 -4.366705629893882 Q -0.9219289704167648 -4.362122945053135 -0.940656173225285 -4.356491313331558 Q -0.9797867507382796 -4.344112898051239 -1.0074872134934256 -4.331657945393974 Q -0.9932374555883341 -4.291638767180697 -0.9796114785581664 -4.251915789200847 Q -0.9633648563960279 -4.204832962354188 -0.9466268632716448 -4.156370163845002 Q -0.9018179644831855 -4.02616145660524 -0.8798700615029297 -3.9645227223457105 Q -0.8223712422309802 -3.9849965124392326 -0.7962145414591091 -3.9974200846884287 Q -0.7679216782371083 -4.0111225990955415 -0.7582025599234846 -4.007845262183603 Q -0.7484834416098609 -4.004567925271665 -0.7448800545534011 -3.9944481330798025 Q -0.7358715869122513 -3.9691486526001447 -0.783578194633834 -3.9531982306714335 Q -0.7934017865922697 -3.9502186244898976 -0.8012216260132548 -3.9474341890371782 L -0.8386446512222262 -3.9346271636107515 L -0.8657840939185864 -3.924963534686609 L -0.8498964328060131 -3.8803444509315765 M -0.5051203200055339 -4.51451518910269 Q -0.4916383063801013 -4.516785756128628 -0.33242887825738265 -4.547560197614867 Q -0.3102798558727434 -4.551290414871765 -0.2992561388177374 -4.535816456391436 Q -0.2965192200762694 -4.531325818243202 -0.2954650282427984 -4.525066311917108 Q -0.29441083640932736 -4.518806805591014 -0.30053860603544635 -4.5110901738291425 Q -0.30666637566156535 -4.503373542067271 -0.32648898729258946 -4.500530283694485 Q -0.3463115989236135 -4.497687025321699 -0.3650115510175789 -4.49552799663428 Q -0.3837115031115442 -4.493368967946862 -0.39968211084958755 -4.491174443010058 Q -0.4282528229193161 -4.4873530348929345 -0.44839475167796716 -4.483465683867405 Q -0.433595669286461 -4.3720718385082264 -0.411782007501561 -4.24254820760675 Q -0.38842760380620345 -4.103876067459443 -0.3795505896963797 -4.052636811473885 Q -0.370673575586556 -4.001397555488328 -0.3618446817020272 -3.9548541916449325 Q -0.3402894437267126 -3.8356853460010227 -0.32911394072711253 -3.778148562644805 Q -0.32587532313756573 -3.7618586377791345 -0.33248206845512535 -3.7525758670381486 Q -0.33908881377268496 -3.7432930962971627 -0.3484780732618255 -3.741711808546956 Q -0.35786733275096605 -3.7401305207967495 -0.3680320127856994 -3.746093582268691 Q -0.37819669282043283 -3.7520566437406324 -0.3807105348848637 -3.7669831588259326 L -0.3918150453856941 -3.8299786308939945 L -0.4644425944398378 -4.290622512413549 Q -0.48609407286574224 -4.4191831423417804 -0.4989523027733394 -4.47495105752014 Q -0.5245529202438346 -4.471134698993381 -0.559296997369795 -4.46280750395693 Q -0.6002194891423513 -4.452944616600386 -0.6185545286785767 -4.448618835723166 Q -0.6368895682148021 -4.444293054845946 -0.6458099511932301 -4.4502180952733195 Q -0.6547303341716582 -4.456143135700694 -0.6563116219218648 -4.465532395189835 Q -0.6578929096720713 -4.474921654678976 -0.6517296437965674 -4.48536763079677 Q -0.6455663779210634 -4.495813606914563 -0.6283514731267148 -4.4979701108068 Q -0.6111365683323661 -4.500126614699036 -0.598536464000681 -4.501753497879356 Q -0.5859363596689957 -4.503380381059675 -0.5764660085003575 -4.504480168323259 Q -0.5669956573317191 -4.505579955586843 -0.5596920583528824 -4.506314830292688 Q -0.5523884593740458 -4.507049704998531 -0.5448846559916467 -4.508065875787436 Q -0.5373808526092476 -4.5090820465763395 -0.5277508428767957 -4.510703880166295 L -0.5051203200055339 -4.51451518910269 M -0.09686671945882881 -3.9960083701206086 Q -0.07978058205891334 -3.995652465427434 -0.07566155891938406 -3.9823802125121115 Q -0.07154253577985475 -3.969107959596789 -0.07217299552204977 -3.9388410876312245 Q -0.07280345526424478 -3.9085742156656598 -0.0650535843394695 -3.882039878540534 Q -0.05730371341469423 -3.855505541415408 -0.0430346948904084 -3.837137992141348 Q -0.014008482487553459 -3.800392724887708 0.03871445577504287 -3.7992945046916264 Q 0.09143739403763917 -3.798196284495545 0.12348902880055262 -3.8363554280078334 Q 0.15554066356346613 -3.8745145715201224 0.15705580068583797 -3.9472526993083337 Q 0.15907937308417358 -4.04439959481071 0.07815388756578354 -4.121785285957379 Q 0.05516889360303323 -4.14375309941077 0.030953292549055433 -4.165258159273675 Q 0.006737691495077608 -4.18676321913658 -0.01622696505663415 -4.209707383298537 Q -0.039191621608345883 -4.2326515474604935 -0.057172837562031883 -4.260375778110091 Q -0.09644064118867499 -4.321265349245037 -0.09484415442214891 -4.397908879867515 Q -0.09320699283354575 -4.476505111907126 -0.04582363233022416 -4.523868444956841 Q 0.001061384113294872 -4.570753771357793 0.07038228442152336 -4.569309815174056 Q 0.12993967764408587 -4.5680692331007045 0.16718352142560272 -4.52724569501897 Q 0.20869891892943798 -4.4804725343361635 0.2035936863332553 -4.3995066064637705 Q 0.20302416133481782 -4.395611372335024 0.20317673066228603 -4.391212709793714 Q 0.2033292999897542 -4.386814047252405 0.20185464396606412 -4.37463508515912 Q 0.200379987942374 -4.3624561230658365 0.19115045413050713 -4.353124824709418 Q 0.1819209203186402 -4.343793526353001 0.1714251502015493 -4.344012153521665 Q 0.16092938008445834 -4.34423078069033 0.15380503952783475 -4.353902730681643 Q 0.14668069897121105 -4.363574680672956 0.14944697431924436 -4.379145448482426 Q 0.15653556942783425 -4.414650056173356 0.15691689588480706 -4.43295663195898 Q 0.15729822234177981 -4.451263207744604 0.15105359104661065 -4.467998447314746 Q 0.14480895975144142 -4.484733686884888 0.13286896223786004 -4.497680463734236 Q 0.10706677191012198 -4.525079218317858 0.06508369144175827 -4.525953726992515 Q 0.018707032784844813 -4.526919754016847 -0.011244454330905956 -4.495798478319589 Q -0.044196174510991476 -4.461320987375464 -0.04526388859051528 -4.410062575175717 Q -0.04633160267003908 -4.358804162975971 -0.035759451027516403 -4.327082972397754 Q -0.025187299384993728 -4.295361781819539 -0.007409496286372275 -4.269595336939834 Q 0.010368306812249206 -4.2438288920601295 0.03336346948051877 -4.222349253961022 Q 0.056358632148788335 -4.200869615861915 0.08009622655400214 -4.179862900058813 Q 0.1038338209592159 -4.15885618425571 0.12681373056920658 -4.136644283125178 Q 0.14979364017919722 -4.1144323819946464 0.1677951935439218 -4.087684502053616 Q 0.20707316587608415 -4.027283106272954 0.20545634169851956 -3.949663224941909 Q 0.2035649624719345 -3.858862609045215 0.15557140214809834 -3.8056513404496193 Q 0.10807618588406476 -3.752918078502787 0.030456304553020147 -3.754534902680352 Q -0.04179364788090817 -3.7560398710972045 -0.0860347234000577 -3.8126375510987933 Q -0.1279061030864257 -3.8657671600928025 -0.12654349654684294 -3.9311826575667643 Q -0.12518089000726015 -3.9965981550407266 -0.09686671945882881 -3.9960083701206086 M 1.1061142228563217 -4.318813669120421 Q 1.024392950638756 -4.08977441914895 0.9916555258672548 -3.994406889695661 Q 0.9589181010957537 -3.899039360242372 0.9438504123513314 -3.8543936686945357 Q 0.928782723606909 -3.8097479771467 0.9154520290516195 -3.769410386409617 Q 0.8872052924944784 -3.6841169226374713 0.8776587678046812 -3.652547180264465 Q 0.8681122431148842 -3.620977437891459 0.8632803220555658 -3.615924879372022 Q 0.8584484009962474 -3.610872320852585 0.8524033059963617 -3.6083012142309645 Q 0.8276025630223647 -3.5977134942593416 0.8111145067913417 -3.6188609394074662 Q 0.8047040155908517 -3.6272565035688538 0.804814223624216 -3.6396086590412553 Q 0.8050753035232856 -3.7727113998588853 0.7957653632868269 -3.932072747710149 Q 0.7864554230503681 -4.0914340955614135 0.7836426828722881 -4.1569308267743175 Q 0.7785273574572181 -4.275875427212865 0.7780097610305675 -4.373624255791997 L 0.5628575592225709 -3.727312923543244 Q 0.5579429821382293 -3.712996248419506 0.5481757092916185 -3.7086053808870343 Q 0.5384084364450077 -3.704214513354563 0.5289409577341485 -3.707464475620015 Q 0.5194734790232893 -3.7107144378854664 0.5140073082886512 -3.721108961708617 Q 0.508541137554013 -3.7315034855317673 0.5142346123574649 -3.7465852823704453 Q 0.5624499494358943 -3.8720026981183358 0.6182541795548697 -4.034566235007235 L 0.7122652831359843 -4.308430375277454 Q 0.7368381685576921 -4.380013750896145 0.7536704034995882 -4.432055582122835 Q 0.7595361890518668 -4.449143226625361 0.7730187517431175 -4.454581845351658 Q 0.7865013144343682 -4.460020464077956 0.7980470201793185 -4.456057095461551 Q 0.823909401048007 -4.447179149760805 0.8238199677175936 -4.419848628177699 Q 0.8237305343871802 -4.3925181065945935 0.8247820063237865 -4.345952833454017 Q 0.8258334782603927 -4.299387560313442 0.8274088811422593 -4.2423174446196565 Q 0.8289842840241259 -4.185247328925872 0.8312697046042504 -4.121222237776775 Q 0.8335551251843748 -4.057197146627678 0.8359990805091554 -3.99363388370838 Q 0.838443035833936 -3.930070620789081 0.8406905170542438 -3.8704466738272365 Q 0.8429379982745517 -3.8108227268653914 0.8448200832942554 -3.7621654506865543 Q 0.846702168313959 -3.7135081745077168 0.8477845809116014 -3.679064142724644 Q 0.8477708049074308 -3.6775201232905936 0.8479155636479164 -3.6764379320863414 Q 0.8752937477621436 -3.7682245430840005 0.909606132628731 -3.8756995378906214 Q 0.9518452547281275 -4.006265944187143 0.9724237201756997 -4.0714767679651604 Q 0.9930021856232718 -4.136687591743179 1.0141355226771405 -4.20351481432549 Q 1.0352688597310093 -4.270342036907801 1.0553131175785406 -4.3362524910326 Q 1.0603862294075383 -4.351030994386137 1.0709255119711742 -4.355414973916523 Q 1.0814647945348104 -4.359798953446909 1.0911631873605685 -4.356469723809129 Q 1.1008615801863266 -4.353140494171349 1.106024457435823 -4.343366333322653 Q 1.1111873346853192 -4.333592172473957 1.1061142228563217 -4.318813669120421 M 1.5414484192798965 -4.115428032749504 Q 1.551353929895549 -4.109166246981395 1.5543903672685018 -4.095693499994927 Q 1.5574268046414546 -4.082220753008459 1.5456055536333326 -4.053011983823993 Q 1.5337843026252105 -4.023803214639527 1.5126963350765 -3.968969788881294 Q 1.4916083675277896 -3.9141363631230623 1.4686158889830934 -3.851264271049204 Q 1.4456234104383971 -3.788392178975345 1.4216514049277857 -3.721229162004096 Q 1.3976793994171741 -3.654066145032847 1.3759251096994345 -3.5904113297379743 Q 1.3257802591252243 -3.4407243365105034 1.3056960099626087 -3.3696595103730735 Q 1.3001697196599622 -3.3517794374372305 1.2880324404332533 -3.3467434560147864 Q 1.2758951612065441 -3.341707474592342 1.2680532986358193 -3.3466647216587617 Q 1.2602114360650942 -3.3516219687251816 1.2566841122695354 -3.3602060643992595 Q 1.2531567884739765 -3.3687901600733374 1.262293051144396 -3.3942084518426103 Q 1.2714293138148154 -3.419626743611883 1.2918554509530902 -3.476611535288254 Q 1.312281588091365 -3.533596326964625 1.3357531461197794 -3.599053882564087 Q 1.3369058629528212 -3.6017911679583383 1.3377976720455251 -3.6041157237436034 Q 1.3105147818555234 -3.623095638913536 1.2593363103413184 -3.6554481987154337 Q 1.1990777874294323 -3.6935407288047646 1.1662539765761955 -3.7119797063748394 Q 1.1642758005251825 -3.709764236461264 1.1622976244741698 -3.707548766547689 Q 1.0604142426667154 -3.6021216336665565 1.006438937811736 -3.543238491089686 Q 0.9890053469646487 -3.524798358434803 0.9712579737782712 -3.536017391269332 Q 0.9526851413739227 -3.5477582395845366 0.9600377858589343 -3.5685274197832784 Q 0.9621913976563702 -3.574675627921104 0.9732113808667007 -3.583883887309658 Q 0.984231364077031 -3.5930921466982113 1.0093263124474228 -3.6167982394578067 Q 1.0344212608178143 -3.640504332217402 1.0659725528219202 -3.671682293935694 Q 1.097523844826026 -3.7028602556539862 1.1344119385681708 -3.7401959865696948 Q 1.1713000323103155 -3.7775317174854033 1.2101663021034732 -3.817082918314687 Q 1.2490325718966306 -3.856634119143971 1.2882902033002952 -3.8968044143867333 Q 1.3275478347039595 -3.936974709629495 1.3640231988371188 -3.974571348285542 Q 1.400498562970278 -4.012167986941588 1.4325503024565809 -4.045051410031667 Q 1.4646020419428838 -4.077934833121747 1.4836438152289557 -4.09709133912291 Q 1.5162719131317797 -4.131343404910115 1.5414484192798965 -4.115428032749504 M 1.1983602589983435 -3.7454063129440733 Q 1.2286840783198916 -3.723926406242452 1.2819261978790242 -3.6902693077388653 Q 1.326088266040475 -3.6623521795227116 1.3532856842365621 -3.646892272968044 Q 1.3683609668186134 -3.689929729932822 1.3847407881023543 -3.7350308349425276 Q 1.4099959643161766 -3.8051375021125207 1.4341411596939144 -3.87074687958063 Q 1.4732525517820136 -3.978307347055209 1.5035313249369886 -4.059102248061868 Q 1.464034153791465 -4.017639221056305 1.3946270480181866 -3.9471377913117 Q 1.3026345464657962 -3.8527880079984436 1.2546601196385883 -3.80339764642824 Q 1.2259883738377901 -3.7735765204681857 1.1983602589983435 -3.7454063129440733 M 1.968797776435669 -3.7839253851055448 Q 1.978716298456205 -3.7745156514778713 2.0990101263076104 -3.665776959041326 Q 2.115304841055634 -3.65031811093872 2.1095646338192253 -3.632206905853391 Q 2.1076209463837037 -3.627320328899246 2.1032521414851413 -3.622715300818283 Q 2.098883336586579 -3.61811027273732 2.089033006790806 -3.618369056920815 Q 2.0791826769950337 -3.6186278411043102 2.0649951888088083 -3.632760612559851 Q 2.0508077006225833 -3.646893384015392 2.0378418566748944 -3.6605402336120525 Q 2.0248760127272054 -3.674187083208713 2.013522387975419 -3.6856313593420613 Q 1.9932947689769804 -3.70616747820184 1.9780809240309025 -3.7199278457140452 Q 1.8979528200834324 -3.64114276729612 1.8075521648747135 -3.545854109313113 Q 1.7107663332757876 -3.4438350256733137 1.6751528557637538 -3.4059411877447094 Q 1.6395393782517202 -3.3680473498161048 1.6076498383287472 -3.3330146318429854 Q 1.5253691821286979 -3.2441566796295582 1.4861044510837267 -3.200640542367153 Q 1.475032578893714 -3.1882605608555137 1.463642713958162 -3.1879607391240055 Q 1.45225284902261 -3.1876609173924972 1.4453453069011652 -3.1942141247403413 Q 1.4384377647797206 -3.200767332088185 1.4370934152743284 -3.21247508792498 Q 1.4357490657689362 -3.2241828437617754 1.4461669851424317 -3.235164064570226 L 1.4898368631140273 -3.2819046402244365 L 1.8143183214937917 -3.6168364685578362 Q 1.9040468528719625 -3.711416660682233 1.9408864664538923 -3.7552143468178203 Q 1.9224481831160087 -3.7733798612566494 1.894908869700384 -3.7961412164251307 Q 1.8624284662885218 -3.8229171435628695 1.8479503437220997 -3.8349699449776584 Q 1.8334722211556773 -3.8470227463924473 1.8328454230159106 -3.8577132309764046 Q 1.8322186248761434 -3.8684037155603623 1.8387718322239874 -3.8753112576818074 Q 1.8453250395718312 -3.882218799803252 1.857377942830916 -3.8835722348156594 Q 1.8694308460900007 -3.884925669828067 1.881502022207412 -3.872464122441881 Q 1.8935731983248234 -3.860002575055695 1.9024471925714757 -3.850910732329265 Q 1.911321186818128 -3.841818889602835 1.9178926670242986 -3.834911449325686 Q 1.9244641472304693 -3.828004009048537 1.9294415792547681 -3.822608847390122 Q 1.934419011279067 -3.817213685731706 1.9397415907256552 -3.811827609580306 Q 1.9450641701722435 -3.806441533428906 1.9521488287583408 -3.799720295123425 L 1.968797776435669 -3.7839253851055448 M 1.8392569650006092 -3.1456645595918524 L 2.009875580766584 -3.262070055890277 Q 2.1546112687140715 -3.36182289287214 2.248749065203763 -3.4403426986173002 Q 2.2607831860464684 -3.4504157481930284 2.272279594562695 -3.447071834032519 Q 2.2837760030789207 -3.4437279198720097 2.2905647378179643 -3.4338778522200277 Q 2.297353472557008 -3.424027784568046 2.2966636213804836 -3.4116919992009107 Q 2.295973770203959 -3.399356213833776 2.2743122999506067 -3.3856130122625183 Q 2.252650829697254 -3.37186981069126 2.2195935936632893 -3.35056907692134 Q 2.1865363576293246 -3.32926834315142 2.1497982532147755 -3.3051342210612185 Q 2.076322044385678 -3.256865976880815 2.0176236820514193 -3.2164106596603927 Q 1.9589253197171603 -3.1759553424399707 1.9375545339207725 -3.1609299407107945 Q 1.9161837481243844 -3.1459045389816183 1.8963586604566276 -3.131647934712061 Q 1.7908005248757322 -3.0559314539428586 1.7691827112098293 -3.026206888319527 Q 1.7475648975439264 -2.996482322696195 1.7414312516505848 -2.972685418508479 Q 1.729163959863901 -2.9250916101330464 1.7579814461031058 -2.883279078059328 Q 1.787630205983826 -2.8402604152527133 1.8387880335854425 -2.8340075707117216 Q 1.8917061743476316 -2.827781912656982 1.9541316748255841 -2.8636897981596596 Q 2.0295475221515513 -2.90914373729664 2.0733702721134297 -2.939346679605037 Q 2.1171930220753077 -2.9695496219134343 2.1490169408901254 -2.991779395202412 Q 2.1808408597049427 -3.014009168491389 2.220088991462825 -3.042245285816665 Q 2.333660812110107 -3.1252639040232104 2.4235120616771058 -3.191934140613284 Q 2.4361003649474884 -3.201203103033748 2.44711866046106 -3.198122686843951 Q 2.458136955974632 -3.1950422706541546 2.4645100538929174 -3.1857952683686204 Q 2.4708831518112033 -3.1765482660830866 2.4701172312096564 -3.164753069900503 Q 2.4693513106081095 -3.1529578737179187 2.4562088249100498 -3.144492998452719 Q 2.3951959669875413 -3.1048145819013087 2.336761102623995 -3.064837377683541 Q 2.278326238260449 -3.0248601734657736 2.2205569154452474 -2.9856381734644986 Q 2.080493611579298 -2.8902916094178006 2.01653600621584 -2.8527347698752177 Q 1.9525784008523823 -2.8151779303326347 1.9153864930633588 -2.802887887363788 Q 1.8781945852743354 -2.7905978443949406 1.8424341396352035 -2.7908582018251704 Q 1.7625137261317079 -2.7915200754682097 1.7184562231313854 -2.8554450043116835 Q 1.6455812338918578 -2.961182465228876 1.7445649860832404 -3.0679488410019555 Q 1.7753320361571356 -3.1016070565915297 1.8203609168519095 -3.1326412725414423 L 1.8392569650006092 -3.1456645595918524 M 2.128188113582014 -2.6116302418625663 Q 2.0265093534086764 -2.5673339724801476 1.9515474240778787 -2.5351481779731686 Q 1.9362824960213318 -2.528603541432538 1.925563256608634 -2.5338241720651884 Q 1.9148440171959362 -2.5390448026978394 1.9111718645220725 -2.5483566608694006 Q 1.9074997118482087 -2.5576685190409614 1.911763879419638 -2.567485697972868 Q 1.9160280469910675 -2.5773028769047746 1.9301093934944036 -2.5828558882652515 L 2.271695605446298 -2.717561196106501 Q 2.4488480291979444 -2.787421661609277 2.586258035655529 -2.8515822779096403 Q 2.6057070747544113 -2.860826682405479 2.618265597247624 -2.8516074836163834 Q 2.62341567952145 -2.8478647825836942 2.6262465877821186 -2.842682632874039 Q 2.629077496042787 -2.8375004831643835 2.6418726451982577 -2.821026319605963 Q 2.673495845802319 -2.7794346628191957 2.691677479772913 -2.7333296089453696 Q 2.709859113743507 -2.6872245550715435 2.7115508866192055 -2.6529873841656535 Q 2.7132426594949046 -2.618750213259764 2.7007668399719678 -2.5891611226714173 Q 2.674164555414573 -2.5261827431985027 2.5874052914746644 -2.491969028042015 Q 2.475662993415933 -2.447903195955649 2.3368916207321746 -2.4950045385394537 Q 2.31453184096449 -2.5024580972899626 2.291909780585884 -2.5119077333751103 Q 2.1731933664673657 -2.4136536893276896 2.0551165080977567 -2.297806035040296 Q 2.034886816532315 -2.2772313598936567 2.014932680794047 -2.294556500156502 Q 2.0100577061054747 -2.2989325675718946 2.007191635725874 -2.306200359315552 Q 2.0007429773717713 -2.322552890738781 2.0166797527340172 -2.336710750846187 Q 2.0531916514848234 -2.367905368414933 2.0873715492481404 -2.3950310935893695 Q 2.1215514470114574 -2.4221568187638054 2.153866407745596 -2.4480222246600003 Q 2.212303313862566 -2.4941615441689176 2.252557913646061 -2.530506244011489 Q 2.1887926923403813 -2.563096760572802 2.128188113582014 -2.6116302418625663 M 2.1708032388638046 -2.630010245693383 Q 2.2408954863883945 -2.574720706907473 2.3373847868810693 -2.540338448116989 Q 2.4681846772006018 -2.494817426806841 2.5662998657399756 -2.533509376931455 Q 2.668048950151178 -2.57363436224587 2.6694510385099504 -2.6565929796476366 Q 2.6703984416428237 -2.7021060186238968 2.6347640700289467 -2.7578621731261967 Q 2.6180280741015247 -2.7843295503321466 2.6017781584729507 -2.7989164417167887 Q 2.4627241441119714 -2.7509035734922653 2.3700597993803405 -2.7143611761523516 Q 2.271490373856988 -2.6754900966290123 2.264085028320704 -2.6723073430580597 Q 2.25667968278442 -2.6691245894871067 2.2506370482000717 -2.666479224112329 Q 2.244594413615723 -2.663833858737551 2.238187106746759 -2.6607822454720593 Q 2.2317797998777946 -2.657730632206567 2.2197840954084604 -2.6522127829650226 Q 2.2077883909391263 -2.6466949337234777 2.1886144594254975 -2.6380838956103427 Q 2.180617323112608 -2.6344053294493133 2.1708032388638046 -2.630010245693383 M 2.8520430984254954 -2.1366742836171206 Q 2.853918507264295 -2.1251065723806724 2.8458415885995887 -2.113903972317966 Q 2.8377646699348817 -2.1027013722552588 2.808057067357037 -2.0921964914018023 Q 2.7783494647791933 -2.081691610548346 2.7233112223546474 -2.06114413317189 Q 2.668272979930102 -2.0405966557954347 2.605952711206816 -2.0161479720347595 Q 2.54363244248353 -1.9916992882740847 2.4774497021355186 -1.9651404333117788 Q 2.4112669617875073 -1.9385815783494729 2.3491811191690712 -1.9126869306842418 Q 2.2038538338500233 -1.8510372581596704 2.137325685965999 -1.8189811804599505 Q 2.120273551492641 -1.811270045484947 2.1084586146508384 -1.81702173422292 Q 2.096643677809036 -1.8227734229608927 2.0951589791449856 -1.8319311943564143 Q 2.093674280480936 -1.8410889657519358 2.0977649465892494 -1.8494193416432587 Q 2.1018556126975634 -1.8577497175345814 2.126945258560172 -1.8677532430401056 Q 2.1520349044227807 -1.8777567685456298 2.208245613629557 -1.900225629915584 Q 2.2644563228363337 -1.9226944912855384 2.329030247330646 -1.948497861157334 Q 2.3318440331048085 -1.9494487013352193 2.334175830910785 -1.9503213994781545 Q 2.330308136438741 -1.983331007419608 2.320618524104941 -2.0430975154745905 Q 2.309209787002241 -2.1134677588296507 2.3012648984383497 -2.150268264240122 Q 2.2982948285942877 -2.1502813999986072 2.2953247587502257 -2.1502945357570926 Q 2.1488536319717846 -2.1567220435410985 2.068987450080394 -2.1581188269915237 Q 2.043624643353442 -2.1589534628909273 2.040264535850592 -2.179678945522897 Q 2.036748144277842 -2.2013684040912374 2.057174194528497 -2.2096265333108907 Q 2.0632056120100564 -2.2120883436697967 2.077404553433796 -2.209938428934729 Q 2.0916034948575355 -2.2077885141996605 2.1259871562898565 -2.204706454150492 Q 2.1603708177221774 -2.2016243941013234 2.2046286646230557 -2.198659210846599 Q 2.2488865115239336 -2.1956940275918746 2.3012925149872445 -2.1928132179933617 Q 2.3536985184505554 -2.189932408394849 2.4090745917579284 -2.1870384630378505 Q 2.4644506650653017 -2.1841445176808523 2.520549720324953 -2.181367785376279 Q 2.576648775584604 -2.1785910530717056 2.628976637012965 -2.1761922314413784 Q 2.681304498441326 -2.1737934098110507 2.7271711611959026 -2.1715837116468366 Q 2.773037823950479 -2.1693740134826225 2.800002878651888 -2.1678098277516984 Q 2.847276434293545 -2.166075549676427 2.8520430984254954 -2.1366742836171206 M 2.3475744781436365 -2.1483777020949506 Q 2.351585320927095 -2.1114340483730643 2.361665643435645 -2.049257600477155 Q 2.3700268411752954 -1.9976848878813234 2.3764738953166513 -1.9670720840223115 Q 2.4186938176875676 -1.9843047565346537 2.4633236798994105 -2.001928139221746 Q 2.5325612000056767 -2.029476905379412 2.5976952545031247 -2.0548764293179724 Q 2.7041633974700683 -2.0968703537307896 2.7847342027079325 -2.127740492631812 Q 2.727508319562768 -2.129839881880825 2.62871459435922 -2.1350932415926946 Q 2.4970938168010894 -2.141455070584274 2.428313358177962 -2.1446491208385488 Q 2.386979942224429 -2.1463571273968496 2.3475744781436365 -2.1483777020949506 M 2.8929242219966493 -1.6504788989699435 Q 2.891837581811239 -1.6207135710539877 2.8493853928163517 -1.6222633693512123 Q 2.7918065617658145 -1.6243653946279075 2.72815499893378 -1.6274220263667596 Q 2.6645034361017457 -1.6304786581056117 2.612797893168863 -1.6328548742952746 Q 2.5610923502359793 -1.6352310904849376 2.492308340466072 -1.6382307887481966 Q 2.3493728027774794 -1.6444261367835593 2.1415390911081964 -1.6529907166985869 Q 2.13604232539409 -1.5559586889193489 2.1415656163540433 -1.4663420572479184 Q 2.14287614528829 -1.448704379121426 2.1332487021061364 -1.4392837169116501 Q 2.123621258923983 -1.4298630547018745 2.113374178821769 -1.4302371439460322 Q 2.1031270987195545 -1.4306112331901897 2.0958844256152935 -1.439670558196109 Q 2.088641752511032 -1.448729883202028 2.0902411469753153 -1.465772722491989 Q 2.096663522915977 -1.52123940479937 2.0965662531586275 -1.5854947133547013 Q 2.096468983401278 -1.6497500219100327 2.0949981305052496 -1.6629960942784334 Q 2.093527277609221 -1.6762421666468341 2.094969840266721 -1.6822970846548 Q 2.0964124029242215 -1.6883520026627659 2.1004941902222827 -1.6930890544279507 Q 2.1091813485608117 -1.703521256575476 2.125248275460086 -1.7019574896582557 Q 2.239216259888097 -1.6919335923078052 2.4234197236302815 -1.6852088927997335 Q 2.6076231873724653 -1.6784841932916617 2.6513041737424774 -1.6771338386582808 Q 2.6949851601124895 -1.6757834840248997 2.7316175023103173 -1.675423363400738 Q 2.804394230510629 -1.674720935925946 2.862692596812417 -1.6789445274151855 Q 2.878360636384004 -1.6798383552482141 2.8858472875859364 -1.6707701233555294 Q 2.89333393878787 -1.6617018914628447 2.8929242219966493 -1.6504788989699435 M 2.843806585628773 -1.1398492424403162 Q 2.8374798235725534 -1.1107437856543303 2.7959687622548355 -1.1197672003902497 Q 2.7396664032262072 -1.1320058548596574 2.677555387365767 -1.1462566849172902 Q 2.615444371505327 -1.160507514974923 2.564971393517486 -1.1719786991510746 Q 2.514498415529645 -1.1834498833272258 2.44732558528755 -1.1985511768798964 Q 2.3077313998091658 -1.2298946555035724 2.104677775764615 -1.2750325497580217 Q 2.0821294564804904 -1.1804968308697212 2.071737665756878 -1.0913135471181246 Q 2.069912393512944 -1.0737216865850039 2.0587724112169092 -1.0661495446726832 Q 2.0476324289208745 -1.0585774027603627 2.0376125175683217 -1.0607554683862743 Q 2.0275926062157694 -1.062933534012186 2.022063870753952 -1.0731296493239753 Q 2.0165351352921355 -1.0833257646357644 2.021119521940326 -1.0998181820685033 Q 2.037237554489226 -1.1532785298569694 2.0484907008246833 -1.2165408475231703 Q 2.0597438471601413 -1.279803165189371 2.0606356627072553 -1.2931007779999695 Q 2.0615274782543698 -1.3063983908105679 2.0640167924784305 -1.3121033302316216 Q 2.0665061067024912 -1.3178082696526752 2.071360389896755 -1.321749916724972 Q 2.0817535297426333 -1.3304837707304797 2.0972916699037008 -1.326106818903804 Q 2.207697501760194 -1.2961112811564737 2.387817336788222 -1.2569579585954442 Q 2.56793717181625 -1.2178046360344148 2.610692938428936 -1.2087604970895192 Q 2.6534487050416224 -1.1997163581446235 2.689441537550825 -1.1928918296094682 Q 2.7609500639333957 -1.179346489949915 2.81907788793771 -1.1732069203356155 Q 2.83465747651673 -1.1713193790988767 2.840424781296465 -1.1610714050817086 Q 2.8461920860762 -1.1508234310645404 2.843806585628773 -1.1398492424403162 M 2.066454463976276 -0.7283534287388118 L 1.9350530678109563 -0.7825279549765201 Q 1.9149464195515444 -0.7913891241123027 1.9162647284557235 -0.8137527814751302 Q 1.9166435343991892 -0.8194553994172783 1.9195972574444502 -0.8261576155037489 Q 1.922550980489711 -0.8328598315902196 1.9332709709694578 -0.8372065811384328 Q 1.9439909614492046 -0.8415533306866458 1.9592621282447997 -0.8332224095955677 Q 1.9745332950403947 -0.8248914885044895 1.9893841397634233 -0.8162122104424885 Q 2.004234984486452 -0.8075329323804876 2.0197295584849297 -0.7991035538545674 Q 2.055883564481377 -0.7794350039607534 2.0768838415523185 -0.7701800050856027 Q 2.0978841186232597 -0.7609250062104519 2.113272723288944 -0.7546767150469587 Q 2.1286613279546285 -0.7484284238834653 2.1451404763015263 -0.7422331173863687 Q 2.1582950089383868 -0.7369694005712957 2.1747741572852846 -0.7307740940741989 Q 2.218804758069094 -0.7289781204109735 2.2691287214041043 -0.7281437840215764 Q 2.334576366072816 -0.7265138748747535 2.40527981427791 -0.7247020746541487 Q 2.6928496115625107 -0.7185604412488455 2.712956259821923 -0.7096992721130629 Q 2.7241266199660408 -0.7047764003709615 2.7278751130072507 -0.6951204612392299 Q 2.73162360604846 -0.6854645221074984 2.7274429210166495 -0.6747674687023435 Q 2.723262235984839 -0.6640704152971888 2.713329904983828 -0.6615109233720344 Q 2.703397573982818 -0.6589514314468802 2.6590565770985797 -0.6648861726320772 Q 2.614715580214342 -0.6708209138172743 2.542986041531726 -0.6757529029802808 Q 2.4712565028491102 -0.6806848921432873 2.4049152293688696 -0.6827086310294784 Q 2.317103927337331 -0.6856568490804806 2.2165619700001042 -0.6851444344968478 Q 2.2319276375911965 -0.6703687087533308 2.2491335474717444 -0.6537147798498639 Q 2.27693409668326 -0.6259885468563828 2.307790381633485 -0.5961152307316243 Q 2.33864666658371 -0.5662419146068658 2.3710932942873093 -0.5351341245976062 Q 2.4035399219909093 -0.5040263345883467 2.434914986448543 -0.47472478263739326 Q 2.511834269940895 -0.40347405568799943 2.538252859806016 -0.3816928282747959 Q 2.564671449671137 -0.35991160086159235 2.5735053237122445 -0.34908168440970766 Q 2.5823391977533516 -0.33825176795782286 2.5772194111415665 -0.32663459340794043 Q 2.5677674973967313 -0.30518750193123423 2.5467672203257896 -0.3144425008063849 Q 2.5306819017182605 -0.321531436115011 2.461653835428434 -0.39010483188842293 Q 2.3926257691386077 -0.45867822766183486 2.3705238812298957 -0.4793574428565288 Q 2.3484219933211827 -0.5000366580512229 2.3291524339482974 -0.5186672475494813 Q 2.309882874575412 -0.5372978370477399 2.2880763589712254 -0.558647273851081 Q 2.266269843367039 -0.5799967106544222 2.243418256850085 -0.6026071136754625 Q 2.22056667033313 -0.6252175166965028 2.1996802758736718 -0.6456278519198692 Q 2.1775973684002063 -0.6681662898392657 2.162428615678798 -0.6833888299885476 Q 2.0838802258010998 -0.7206737488211336 2.066454463976276 -0.7283534287388118" fill="#ffffff" fill-rule="nonzero"></path></g><g transform="matrix(1,0,0,1,0,0)"><path d=" M -1.7966959322415865 0.1365384615384615 Q -1.7966959322415865 0.11153846153846148 -1.7880420860877404 0.08749999999999994 Q -1.7793882399338943 0.0634615384615384 -1.7628497783954327 0.0436538461538461 Q -1.7463113168569713 0.023846153846153795 -1.722080547626202 0.012115384615384528 Q -1.6978497783954327 0.00038461538461531664 -1.6670805476262018 0.00038461538461531664 Q -1.6305420860877404 0.00038461538461531664 -1.6045805476262018 0.017115384615384532 Q -1.5786190091646635 0.033846153846153776 -1.5663113168569711 0.05999999999999994 L -1.5874651630108172 0.07307692307692301 Q -1.5963113168569711 0.05499999999999994 -1.6097728553185096 0.04442307692307687 Q -1.6232343937800482 0.033846153846153776 -1.6384267014723557 0.02923076923076917 Q -1.6536190091646634 0.02461538461538454 -1.6686190091646635 0.02461538461538454 Q -1.693234393780048 0.02461538461538454 -1.712080547626202 0.03442307692307686 Q -1.7309267014723557 0.04423076923076916 -1.743811316856971 0.060576923076923 Q -1.7566959322415865 0.07692307692307687 -1.763234393780048 0.09711538461538455 Q -1.7697728553185097 0.11730769230769225 -1.7697728553185097 0.138076923076923 Q -1.7697728553185097 0.16076923076923072 -1.762080547626202 0.18153846153846148 Q -1.7543882399338941 0.20230769230769224 -1.7405420860877403 0.21826923076923072 Q -1.7266959322415865 0.2342307692307692 -1.7080420860877403 0.2436538461538461 Q -1.6893882399338942 0.25307692307692303 -1.6674651630108173 0.25307692307692303 Q -1.652080547626202 0.25307692307692303 -1.6359267014723557 0.24769230769230766 Q -1.6197728553185096 0.24230769230769228 -1.6057343937800481 0.2311538461538461 Q -1.5916959322415865 0.21999999999999997 -1.5832343937800482 0.20230769230769224 L -1.5609267014723558 0.2138461538461538 Q -1.569388239933894 0.2342307692307692 -1.587080547626202 0.24846153846153843 Q -1.6047728553185097 0.26269230769230767 -1.6265036245492788 0.26999999999999996 Q -1.648234393780048 0.27730769230769226 -1.6690036245492788 0.27730769230769226 Q -1.6970805476262019 0.27730769230769226 -1.7205420860877403 0.26519230769230767 Q -1.744003624549279 0.25307692307692303 -1.7611190091646636 0.23288461538461536 Q -1.778234393780048 0.21269230769230765 -1.7874651630108174 0.18749999999999994 Q -1.7966959322415865 0.16230769230769226 -1.7966959322415865 0.1365384615384615 M -1.434017333984375 0.0019230769230768607 L -1.4113250262920671 0.0019230769230768607 L -1.2978634878305286 0.27499999999999997 L -1.3263250262920672 0.27499999999999997 L -1.3617096416766825 0.18961538461538457 L -1.4844019493689902 0.18961538461538457 L -1.5194019493689903 0.27499999999999997 L -1.548248103215144 0.27499999999999997 L -1.434017333984375 0.0019230769230768607 M -1.3678634878305287 0.1684615384615384 L -1.4228634878305289 0.033461538461538404 L -1.4786327185997594 0.1684615384615384 L -1.3678634878305287 0.1684615384615384 M -1.2316998760516826 0.05153846153846148 L -1.2316998760516826 0.27499999999999997 L -1.2586229529747595 0.27499999999999997 L -1.2586229529747595 0.0019230769230768607 L -1.236315260667067 0.0019230769230768607 L -1.057084491436298 0.22961538461538458 L -1.057084491436298 0.002307692307692233 L -1.030161414513221 0.002307692307692233 L -1.030161414513221 0.27499999999999997 L -1.055161414513221 0.27499999999999997 L -1.2316998760516826 0.05153846153846148 M -0.9617103928786056 0.27499999999999997 L -0.9617103928786056 0.0019230769230768607 L -0.9347873159555288 0.0019230769230768607 L -0.9347873159555288 0.27499999999999997 L -0.9617103928786056 0.27499999999999997 M -0.8394081467848556 0.05153846153846148 L -0.8394081467848556 0.27499999999999997 L -0.8663312237079325 0.27499999999999997 L -0.8663312237079325 0.0019230769230768607 L -0.8440235314002402 0.0019230769230768607 L -0.6647927621694709 0.22961538461538458 L -0.6647927621694709 0.002307692307692233 L -0.6378696852463941 0.002307692307692233 L -0.6378696852463941 0.27499999999999997 L -0.662869685246394 0.27499999999999997 L -0.8394081467848556 0.05153846153846148 M -0.38595712515024017 0.2511538461538461 L -0.38595712515024017 0.27499999999999997 L -0.5694186636117786 0.27499999999999997 L -0.5694186636117786 0.0019230769230768607 L -0.3894186636117787 0.0019230769230768607 L -0.3894186636117787 0.02576923076923071 L -0.5424955866887018 0.02576923076923071 L -0.5424955866887018 0.12423076923076917 L -0.40903404822716327 0.12423076923076917 L -0.40903404822716327 0.14692307692307688 L -0.5424955866887018 0.14692307692307688 L -0.5424955866887018 0.2511538461538461 L -0.38595712515024017 0.2511538461538461 M -0.21018263596754783 0.05153846153846148 L -0.21018263596754783 0.27499999999999997 L -0.23710571289062476 0.27499999999999997 L -0.23710571289062476 0.0019230769230768607 L -0.21479802058293246 0.0019230769230768607 L -0.03556725135216318 0.22961538461538458 L -0.03556725135216318 0.002307692307692233 L -0.008644174429086271 0.002307692307692233 L -0.008644174429086271 0.27499999999999997 L -0.033644174429086265 0.27499999999999997 L -0.21018263596754783 0.05153846153846148 M 0.17096069335937528 0.2769230769230769 Q 0.13865300105168293 0.2769230769230769 0.11634530874399064 0.26538461538461533 Q 0.09403761643629834 0.25384615384615383 0.08096069335937525 0.2344230769230769 Q 0.06788377028245218 0.21499999999999997 0.06192223182091371 0.19038461538461532 Q 0.055960693359375244 0.16576923076923072 0.055960693359375244 0.13961538461538456 L 0.055960693359375244 0.0019230769230768607 L 0.0824991548978368 0.0019230769230768607 L 0.0824991548978368 0.13961538461538456 Q 0.0824991548978368 0.16076923076923072 0.08692223182091371 0.1811538461538461 Q 0.09134530874399063 0.2015384615384615 0.10134530874399064 0.21769230769230766 Q 0.11134530874399064 0.23384615384615381 0.12826838566706755 0.24326923076923074 Q 0.14519146259014448 0.25269230769230766 0.17057607797475988 0.25269230769230766 Q 0.19672992412860604 0.25269230769230766 0.21384530874399066 0.24288461538461534 Q 0.23096069335937527 0.23307692307692304 0.24076838566706757 0.21692307692307689 Q 0.2505760779747599 0.20076923076923073 0.25480684720552915 0.18057692307692302 Q 0.25903761643629836 0.16038461538461535 0.25903761643629836 0.13961538461538456 L 0.25903761643629836 0.0019230769230768607 L 0.2859606933593753 0.0019230769230768607 L 0.2859606933593753 0.13961538461538456 Q 0.2859606933593753 0.16692307692307687 0.2798068472055291 0.19192307692307686 Q 0.273653001051683 0.21692307692307689 0.2599991548978368 0.23576923076923073 Q 0.24634530874399066 0.2546153846153846 0.22442223182091373 0.26576923076923076 Q 0.20249915489783682 0.2769230769230769 0.17096069335937528 0.2769230769230769 M 0.544039494441106 0.02576923076923071 L 0.4467318021334137 0.02576923076923071 L 0.4467318021334137 0.27499999999999997 L 0.4198087252103368 0.27499999999999997 L 0.4198087252103368 0.02576923076923071 L 0.3225010329026445 0.02576923076923071 L 0.3225010329026445 0.0019230769230768607 L 0.544039494441106 0.0019230769230768607 L 0.544039494441106 0.02576923076923071 M 0.5848030911959138 0.27499999999999997 L 0.5848030911959138 0.0019230769230768607 L 0.7001877065805291 0.0019230769230768607 Q 0.7178800142728368 0.0019230769230768607 0.7324953988882215 0.009230769230769154 Q 0.747110783503606 0.016538461538461446 0.7580723219651445 0.029038461538461458 Q 0.769033860426683 0.04153846153846147 0.7749953988882214 0.05673076923076917 Q 0.7809569373497599 0.07192307692307687 0.7809569373497599 0.08769230769230763 Q 0.7809569373497599 0.10730769230769224 0.77345693734976 0.12461538461538457 Q 0.7659569373497599 0.14192307692307687 0.7523030911959138 0.1538461538461538 Q 0.7386492450420676 0.16576923076923072 0.7201877065805291 0.16961538461538456 L 0.7871107835036061 0.27499999999999997 L 0.7567261681189907 0.27499999999999997 L 0.6924953988882214 0.1742307692307692 L 0.6117261681189906 0.1742307692307692 L 0.6117261681189906 0.27499999999999997 L 0.5848030911959138 0.27499999999999997 M 0.6117261681189906 0.15038461538461534 L 0.70095693734976 0.15038461538461534 Q 0.717110783503606 0.15038461538461534 0.729033860426683 0.14153846153846147 Q 0.7409569373497599 0.13269230769230764 0.7474953988882215 0.11826923076923071 Q 0.754033860426683 0.10384615384615378 0.754033860426683 0.08769230769230763 Q 0.754033860426683 0.0711538461538461 0.746533860426683 0.05711538461538454 Q 0.739033860426683 0.04307692307692301 0.726533860426683 0.03442307692307686 Q 0.7140338604266829 0.02576923076923071 0.6986492450420676 0.02576923076923071 L 0.6117261681189906 0.02576923076923071 L 0.6117261681189906 0.15038461538461534 M 0.8359627591646638 0.27499999999999997 L 0.8359627591646638 0.0019230769230768607 L 0.8628858360877406 0.0019230769230768607 L 0.8628858360877406 0.27499999999999997 L 0.8359627591646638 0.27499999999999997 M 1.1251880821814908 0.02576923076923071 L 1.0278803898737985 0.02576923076923071 L 1.0278803898737985 0.27499999999999997 L 1.0009573129507214 0.27499999999999997 L 1.0009573129507214 0.02576923076923071 L 0.9036496206430291 0.02576923076923071 L 0.9036496206430291 0.0019230769230768607 L 1.1251880821814908 0.0019230769230768607 L 1.1251880821814908 0.02576923076923071 M 1.1659516789362985 0.27499999999999997 L 1.1659516789362985 0.0019230769230768607 L 1.1928747558593753 0.0019230769230768607 L 1.1928747558593753 0.27499999999999997 L 1.1659516789362985 0.27499999999999997 M 1.3713308481069715 0.2769230769230769 Q 1.3424846942608177 0.2769230769230769 1.3190231557992793 0.26538461538461533 Q 1.295561617337741 0.25384615384615383 1.2786385404146638 0.2340384615384615 Q 1.261715463491587 0.2142307692307692 1.2524846942608177 0.18942307692307686 Q 1.2432539250300485 0.16461538461538455 1.2432539250300485 0.1384615384615384 Q 1.2432539250300485 0.1111538461538461 1.252869309645433 0.0863461538461538 Q 1.2624846942608177 0.061538461538461486 1.2799846942608177 0.042115384615384555 Q 1.2974846942608178 0.022692307692307623 1.3209462327223562 0.011346153846153784 Q 1.3444077711838947 -5.551115123125783e-17 1.371715463491587 -5.551115123125783e-17 Q 1.4005616173377409 -5.551115123125783e-17 1.4240231557992793 0.01192307692307687 Q 1.4474846942608177 0.023846153846153795 1.464215463491587 0.043846153846153785 Q 1.4809462327223561 0.06384615384615377 1.4901770019531253 0.0884615384615384 Q 1.4994077711838947 0.11307692307692302 1.4994077711838947 0.13884615384615379 Q 1.4994077711838947 0.1661538461538461 1.48979238656851 0.1909615384615384 Q 1.4801770019531255 0.2157692307692307 1.462869309645433 0.23519230769230764 Q 1.4455616173377408 0.2546153846153846 1.4221000788762024 0.26576923076923076 Q 1.398638540414664 0.2769230769230769 1.3713308481069715 0.2769230769230769 M 1.2701770019531253 0.1384615384615384 Q 1.2701770019531253 0.16076923076923072 1.2774846942608178 0.1813461538461538 Q 1.28479238656851 0.20192307692307687 1.2982539250300484 0.21788461538461534 Q 1.3117154634915869 0.23384615384615381 1.330369309645433 0.24326923076923074 Q 1.3490231557992793 0.25269230769230766 1.3713308481069715 0.25269230769230766 Q 1.3947923865685101 0.25269230769230766 1.4134462327223563 0.24288461538461534 Q 1.4321000788762024 0.23307692307692304 1.4453693096454332 0.2167307692307692 Q 1.4586385404146638 0.20038461538461533 1.4655616173377408 0.17999999999999994 Q 1.4724846942608179 0.15961538461538455 1.4724846942608179 0.1384615384615384 Q 1.4724846942608179 0.11615384615384611 1.4651770019531254 0.09576923076923072 Q 1.4578693096454332 0.07538461538461533 1.444215463491587 0.05923076923076917 Q 1.430561617337741 0.04307692307692301 1.4121000788762024 0.033846153846153776 Q 1.3936385404146638 0.02461538461538454 1.3713308481069715 0.02461538461538454 Q 1.3482539250300485 0.02461538461538454 1.3296000788762024 0.034230769230769176 Q 1.3109462327223562 0.043846153846153785 1.2976770019531254 0.06019230769230763 Q 1.2844077711838946 0.07653846153846147 1.27729238656851 0.09692307692307686 Q 1.2701770019531253 0.11730769230769225 1.2701770019531253 0.1384615384615384 M 1.5770910644531253 0.05153846153846148 L 1.5770910644531253 0.27499999999999997 L 1.5501679875300485 0.27499999999999997 L 1.5501679875300485 0.0019230769230768607 L 1.5724756798377408 0.0019230769230768607 L 1.75170644906851 0.22961538461538458 L 1.75170644906851 0.002307692307692233 L 1.778629525991587 0.002307692307692233 L 1.778629525991587 0.27499999999999997 L 1.7536295259915868 0.27499999999999997 L 1.5770910644531253 0.05153846153846148" fill="#ffffff" fill-rule="nonzero"></path></g><g transform="matrix(1,0,0,1,0,0)"><g clip-path="url(#SvgjsClipPath1006)"><g clip-path="url(#a139b0d79-1fed-4ca0-b9ff-1f7e993f5cf5218e86b7-df17-4881-9a16-8a36b9637d13)"><path d=" M 1.1357938522386584 -2.672488788125406 C 1.0200041940240148 -2.702874940976962 1.0020487400662765 -2.7522140730061313 0.9692071405196447 -2.8459814436743187 L 0.9643729798387155 -2.841991342794821 C 0.9079855428864261 -3.010426877688661 0.7592830595299267 -3.131062646888642 0.5828406895804692 -3.151511670035021 C 0.4063983196310117 -3.1719606931813993 0.23404574885107854 -3.0885340265069536 0.14062836348288776 -2.9374603207471712 C 0.04721097811469721 -2.786386614987389 0.04958100034203672 -2.5949191233301807 0.1467092303786468 -2.446204028632374 L 0.14647903225098347 -2.4463574940508166 C 0.16251616847819372 -2.3687039923190607 0.13865229591043082 -2.3110009949847914 0.10964733182485387 -2.2758574141615266 L -0.5646029841009743 -1.565312526774117 C -0.5982119107398172 -1.534542710376455 -0.6546104520173277 -1.5076862621490692 -0.7329545481320731 -1.5195798320783398 L -0.732801082713631 -1.5193496339506765 C -0.8864315005758364 -1.6089027134435194 -1.0780114846092814 -1.6014375855955953 -1.2242075870846543 -1.5002014311833631 C -1.3704036895600273 -1.3989652767711307 -1.4447888575668082 -1.222257990003879 -1.4150070360546583 -1.04694369381961 C -1.3852252145425088 -0.8716293976353411 -1.2566598970488556 -0.7293986781905 -1.0852344161661551 -0.682119043639227 L -1.088994318917989 -0.6771314175398553 C -0.9936922940653795 -0.6492007113833735 -0.9434323695255575 -0.6338541695391533 -0.9069843326455337 -0.5198293636365947 L -0.9063704709717652 -0.5234358009699869 C -0.8584763771703967 -0.360905079002245 -0.7247518957758255 -0.23810324674870653 -0.5587382460389683 -0.20419826325870005 C -0.3927245963021109 -0.17029327976869357 -0.2215574635518942 -0.23082706864022162 -0.11376952697732201 -0.3615628347235913 C -0.005981590402749815 -0.4922986008069614 0.020808722030898785 -0.6718669891407116 -0.04412501745423558 -0.8283715874146482 C -0.0612364116105415 -0.9115498442103234 -0.0326151110710704 -0.9718617536581102 -0.001001234871976342 -1.0060078092615008 L 0.0018378753692047667 -1.0090003849211238 L 0.0067487687593554835 -1.0139112783112743 L 0.005904708957923388 -1.0132974166375055 L 0.6907441387562634 -1.735045279571196 L 0.6902070097917159 -1.734124487060543 L 0.6948109723449818 -1.7393423112875779 L 0.6976500825861627 -1.7422581542379798 C 0.7301080185866891 -1.7756368827491595 0.7888085411408325 -1.8074042243666957 0.8728308577379398 -1.7945898619267717 C 1.0326713981503857 -1.7374137633848534 1.2110257930755082 -1.7733346196141049 1.3362717718067092 -1.8879275924155883 C 1.4615177505379102 -2.002520565217072 1.5131100043603274 -2.176987861427199 1.470330488332125 -2.341268163387631 C 1.4275509723039228 -2.505548465348063 1.2974172240129396 -2.6326932869378075 1.1321874149052666 -2.6716447283239737 L 1.1357938522386584 -2.672488788125406" fill="#ffffff" transform="matrix(1,0,0,1,0,0)" fill-rule="nonzero"></path></g><g clip-path="url(#a139b0d79-1fed-4ca0-b9ff-1f7e993f5cf5218e86b7-df17-4881-9a16-8a36b9637d13)"><path d=" M -1.0176328993423636 -2.8507388716460267 C -0.9493407881355824 -2.7390160470201015 -0.9539447506888485 -2.6117164824222923 -1.0280685477964335 -2.5663674512726207 C -1.1021156121947975 -2.5210951528321703 -1.217598339572557 -2.574961514705384 -1.285890450779338 -2.68668433933131 C -1.3542592946953405 -2.798407163957235 -1.3495785994328533 -2.925783461264265 -1.2754548023252683 -2.971055759704716 C -1.2014077379269041 -3.016328058145166 -1.085925010549145 -2.9624616962719523 -1.0176328993423636 -2.8507388716460267" fill="#ffffff" transform="matrix(1,0,0,1,0,0)" fill-rule="nonzero"></path></g><g clip-path="url(#a139b0d79-1fed-4ca0-b9ff-1f7e993f5cf5218e86b7-df17-4881-9a16-8a36b9637d13)"><path d=" M -0.6500064894640613 -2.905602758739115 C -0.6426401493788355 -2.7748502222263567 -0.7068654269968982 -2.6648922499125165 -0.7935733884167442 -2.659981356522366 C -0.8802813498365899 -2.6550704631322155 -0.956553662802366 -2.7570482336870605 -0.9639200028875917 -2.8878007701998194 C -0.9713630756820387 -3.018630039421799 -0.9070610653547548 -3.1285880117356393 -0.8203531039349089 -3.1334989051257898 C -0.7336451425150631 -3.1384097985159403 -0.6573728295492871 -3.036355295251874 -0.6500064894640613 -2.905602758739115" fill="#ffffff" transform="matrix(1,0,0,1,0,0)" fill-rule="nonzero"></path></g><g clip-path="url(#a139b0d79-1fed-4ca0-b9ff-1f7e993f5cf5218e86b7-df17-4881-9a16-8a36b9637d13)"><path d=" M -0.30908306239470273 -2.6282140149048296 C -0.3102340530330192 -2.5078971268461405 -0.3812885417717602 -2.4110604478091093 -0.4677663050639427 -2.4119045076105414 C -0.5541673356469042 -2.412825300121195 -0.6233035066551177 -2.5109664352149847 -0.6220757833075801 -2.6312833232736734 C -0.6209247926692636 -2.7516002113323625 -0.5498703039305226 -2.8484368903693937 -0.46346927334756116 -2.8475928305679616 C -0.37699151005537845 -2.8467487707665295 -0.30793207175638626 -2.7485309029635183 -0.30908306239470273 -2.6282140149048296" fill="#ffffff" transform="matrix(1,0,0,1,0,0)" fill-rule="nonzero"></path></g><g clip-path="url(#a139b0d79-1fed-4ca0-b9ff-1f7e993f5cf5218e86b7-df17-4881-9a16-8a36b9637d13)"><path d=" M -1.185677532536578 -2.514879803385261 C -1.097204718804647 -2.43338966619245 -1.0729571826907784 -2.3156816902472785 -1.131580972535701 -2.252147007012206 C -1.190128029671402 -2.188612323777133 -1.3093706598009955 -2.2031915385291425 -1.3978434735329266 -2.2846816757219535 C -1.4863162872648579 -2.3662485456239852 -1.5104870906695052 -2.4838797888599355 -1.451940033533804 -2.5474144720950083 C -1.3933162436888817 -2.6110258880393022 -1.2741503462685093 -2.596369940578072 -1.185677532536578 -2.514879803385261" fill="#ffffff" transform="matrix(1,0,0,1,0,0)" fill-rule="nonzero"></path></g><g clip-path="url(#a139b0d79-1fed-4ca0-b9ff-1f7e993f5cf5218e86b7-df17-4881-9a16-8a36b9637d13)"><path d=" M -0.4583281818297471 -2.344533188914413 C -0.6622837229394376 -2.5132684164916177 -0.8004025995374223 -2.535060505910411 -0.8948605645885995 -2.4915530597820457 C -0.9900091240227666 -2.4564862116680017 -1.0734943116553262 -2.346528239354162 -1.110863141046003 -2.0933870316337444 C -1.1184596792588923 -2.04228304729249 -1.1147765092162794 -1.9038572398576215 -1.0100363611294745 -1.8797631691621952 C -0.8768283779216404 -1.849070085473754 -0.8229620160484263 -1.9346270562552834 -0.8034719079062663 -1.959641919461363 C -0.7842119978917695 -1.9845033172490003 -0.7640312953666196 -2.0057582777032454 -0.7412416807279522 -2.021488483093572 C -0.698424828982577 -2.0467335444273145 -0.6510040146839355 -2.0491122584131682 -0.5972911182291639 -2.039520669760531 C -0.566060905576175 -2.0339191819873905 -0.4687638302838171 -2.0063721393770146 -0.39034300145985035 -2.1183251621306027 C -0.3286499032460839 -2.2063375796072076 -0.418503905743995 -2.31161485665856 -0.4583281818297471 -2.344533188914413" fill="#ffffff" transform="matrix(1,0,0,1,0,0)" fill-rule="nonzero"></path></g><g clip-path="url(#a139b0d79-1fed-4ca0-b9ff-1f7e993f5cf5218e86b7-df17-4881-9a16-8a36b9637d13)"><path d=" M 0.7426154501897284 -1.1650747154768464 C 0.81090756139651 -1.0533518908509212 0.8063035988432437 -0.926052326253112 0.7321798017356587 -0.8807032951034404 C 0.6581327373372945 -0.8354309966629896 0.542650009959535 -0.8892973585362038 0.4743578987527539 -1.001020183162129 C 0.40598905483675174 -1.1127430077880542 0.4106697500992389 -1.2401193050950847 0.4847935472068239 -1.285391603535535 C 0.5588406116051878 -1.3306639019759856 0.6743233389829473 -1.2767975401027718 0.7426154501897284 -1.1650747154768464" fill="#ffffff" transform="matrix(1,0,0,1,0,0)" fill-rule="nonzero"></path></g><g clip-path="url(#a139b0d79-1fed-4ca0-b9ff-1f7e993f5cf5218e86b7-df17-4881-9a16-8a36b9637d13)"><path d=" M 1.1102418600680313 -1.2199386025699346 C 1.1176082001532568 -1.089186066057176 1.0533829225351945 -0.9792280937433362 0.9666749611153485 -0.9743172003531857 C 0.8799669996955024 -0.9694063069630348 0.8036946867297265 -1.0713840775178802 0.7963283466445006 -1.2021366140306389 C 0.7888852738500534 -1.3329658832526186 0.8531872841773374 -1.4429238555664587 0.9398952455971834 -1.4478347489566092 C 1.026603207017029 -1.45274564234676 1.1028755199828053 -1.3506911390826932 1.1102418600680313 -1.2199386025699346" fill="#ffffff" transform="matrix(1,0,0,1,0,0)" fill-rule="nonzero"></path></g><g clip-path="url(#a139b0d79-1fed-4ca0-b9ff-1f7e993f5cf5218e86b7-df17-4881-9a16-8a36b9637d13)"><path d=" M 1.45116528713739 -0.9425498587356489 C 1.4500142964990728 -0.8222329706769602 1.378959807760332 -0.7253962916399286 1.2924820444681497 -0.7262403514413607 C 1.2060810138851883 -0.727161143952014 1.1369448428769746 -0.8253022790458044 1.1381725662245126 -0.9456191671044931 C 1.1393235568628288 -1.0659360551631818 1.2103780456015696 -1.1627727342002132 1.2967790761845315 -1.1619286743987811 C 1.3832568394767142 -1.161084614597349 1.4523162777757066 -1.0628667467943376 1.45116528713739 -0.9425498587356489" fill="#ffffff" transform="matrix(1,0,0,1,0,0)" fill-rule="nonzero"></path></g><g clip-path="url(#a139b0d79-1fed-4ca0-b9ff-1f7e993f5cf5218e86b7-df17-4881-9a16-8a36b9637d13)"><path d=" M 0.5745708169955139 -0.8292156472160803 C 0.6630436307274454 -0.7477255100232694 0.6872911668413137 -0.6300175340780982 0.6286673769963915 -0.5664828508430255 C 0.5701203198606901 -0.5029481676079528 0.4508776897310969 -0.5175273823599622 0.3624048759991656 -0.5990175195527727 C 0.2739320622672343 -0.6805843894548049 0.24976125886258727 -0.7982156326907552 0.30830831599828823 -0.861750315925828 C 0.36693210584321045 -0.9253617318701219 0.4860980032635829 -0.9107057844088913 0.5745708169955139 -0.8292156472160803" fill="#ffffff" transform="matrix(1,0,0,1,0,0)" fill-rule="nonzero"></path></g><g clip-path="url(#a139b0d79-1fed-4ca0-b9ff-1f7e993f5cf5218e86b7-df17-4881-9a16-8a36b9637d13)"><path d=" M 1.3018434349931245 -0.6588690327452329 C 1.097887893883434 -0.8276042603224374 0.9597690172854492 -0.8493963497412307 0.8653110522342722 -0.8058889036128654 C 0.7701624928001047 -0.7708220554988214 0.686677305167545 -0.6608640831849821 0.6493084757768686 -0.40772287546456454 C 0.6417119375639793 -0.35661889112331036 0.6453951076065922 -0.21819308368844137 0.7501352556933969 -0.19409901299301469 C 0.8833432389012312 -0.1634059293045742 0.9372096007744455 -0.2489629000861031 0.9566997089166049 -0.27397776329218315 C 0.975959618931102 -0.2988391610798202 0.9961403214562519 -0.3200941215340656 1.0189299360949193 -0.33582432692439124 C 1.0617467878402942 -0.36106938825813417 1.1091676021389354 -0.36344810224398794 1.1628804985937076 -0.35385651359135073 C 1.1941107112466964 -0.3482550258182098 1.2914077865390547 -0.32070798320783434 1.3698286153630215 -0.43266100596142243 C 1.4315217135767875 -0.5206734234380272 1.3416677110788764 -0.6259507004893798 1.3018434349931245 -0.6588690327452329" fill="#ffffff" transform="matrix(1,0,0,1,0,0)" fill-rule="nonzero"></path></g></g></g></g><defs><clipPath id="SvgjsClipPath1006"><path d=" M -1.4838608405697826 -3.154646184381665 h 2.9677216811395652 v 2.967146184381665 h -2.9677216811395652 Z"></path></clipPath><clipPath id="a139b0d79-1fed-4ca0-b9ff-1f7e993f5cf5218e86b7-df17-4881-9a16-8a36b9637d13"><path d=" M -1.4838608405697826 -0.1875 L 1.4838534212655796 -0.1875 L 1.4838534212655796 -3.154677132870814 L -1.4838608405697826 -3.154677132870814 Z"></path></clipPath></defs></svg>